# Blender v2.79 (sub 0) OBJ File: 'Screen.blend'
# www.blender.org
mtllib Screen.mtl
o Screen_Plane.027
v 21.247513 11.741759 -5.361455
v 21.262222 4.318135 -5.338236
v 18.852417 14.049742 -14.282614
v 18.867126 4.285487 -14.259395
v 18.551416 14.099056 14.322662
v 18.552006 4.300832 14.321142
v 21.205284 11.726452 5.842109
v 21.205875 4.302780 5.840586
v 21.262939 11.705173 5.820820
v 21.262939 4.281501 5.820819
v 21.262939 11.705173 -5.301028
v 21.262941 4.281501 -5.301028
vt 0.890697 0.755900
vt 0.555248 0.011954
vt 0.890697 0.016359
vt 0.555248 0.751495
vt 0.905599 0.751517
vt 0.992578 0.011954
vt 0.992578 0.984670
vt 0.499117 0.912432
vt 0.048731 0.284263
vt 0.499117 0.087568
vt 0.905540 0.011972
vt 0.048709 0.909226
vn 1.0000 0.0000 0.0000
vn 0.9659 0.0008 -0.2591
vn 0.9544 0.0000 0.2987
vn 0.9658 0.0011 -0.2593
usemtl Material
s off
f 10/1/1 11/2/1 9/3/1
f 10/1/1 12/4/1 11/2/1
usemtl Material_NONE
f 1/5/2 4/6/2 3/7/2
f 6/8/3 7/9/3 5/10/3
f 1/5/4 2/11/4 4/6/4
f 6/8/3 8/12/3 7/9/3
