# Blender v2.79 (sub 0) OBJ File: 'Wing_Table_Ground.blend'
# www.blender.org
mtllib Wing_Table_Ground2.mtl
o Wing_Table_Ground_Plane.000
v -0.585138 0.000000 3.557618
v 0.585138 0.000000 3.557618
v -0.585138 0.000000 -3.557618
v 0.585138 0.000000 -3.557618
v -0.585138 0.000000 -3.557618
v -0.585138 0.000000 3.557618
v 0.585138 0.000000 3.557618
v 0.585138 0.000000 -3.557618
v -0.585138 0.000000 -3.557618
v -0.585138 0.000000 3.557618
v 0.585138 0.000000 3.557618
v 0.585138 0.000000 -3.557618
v -0.585138 0.000000 -3.557618
v -0.585138 0.000000 3.557618
v 0.585138 0.000000 3.557618
v 0.585138 0.000000 -3.557618
v -0.585138 0.000000 -3.557618
v -0.585138 0.000000 3.557618
v 0.585138 0.000000 3.557618
v 0.585138 0.000000 -3.557618
v -0.585138 0.000000 -3.557618
v -0.585138 0.000000 3.557618
v 0.585138 0.000000 3.557618
v 0.585138 0.000000 -3.557618
v -0.585138 0.000000 -3.557618
v -0.585138 0.000000 3.557618
v 0.585138 0.000000 3.557618
v 0.585138 0.000000 -3.557618
v -0.585138 0.000000 -3.557618
v -0.585138 0.000000 3.557618
v 0.585138 0.000000 3.557618
v 0.585138 0.000000 -3.557618
v -0.585138 0.000000 -3.557618
v -0.585138 0.000000 3.557618
v 0.585138 0.000000 3.557618
v 0.585138 0.000000 -3.557618
v -0.585138 0.000000 -3.557618
v -0.585138 0.000000 3.557618
v 0.585138 0.000000 3.557618
v 0.585138 0.000000 -3.557618
v -0.585138 0.000000 -3.557618
v -0.585138 0.000000 3.557618
v 0.585138 0.000000 3.557618
v 0.585138 0.000000 -3.557618
v -0.585138 0.000000 -3.557618
v -0.585138 0.000000 3.557618
v 0.585138 0.000000 3.557618
v 0.585138 0.000000 -3.557618
v -0.585138 0.000000 -3.557618
v -0.585138 0.000000 3.557618
v 0.585138 0.000000 3.557618
v 0.585138 0.000000 -3.557618
v -0.585138 -0.050000 -3.557618
v -0.585138 -0.050000 3.557618
v 0.585138 -0.050000 3.557618
v 0.585138 -0.050000 -3.557618
v 0.585138 -1.150000 3.557618
v 0.585138 -1.150000 -3.557618
vt 0.026966 0.973214
vt 0.476404 0.526786
vt 0.476404 0.973214
vt 0.000000 0.000000
vt 0.000000 0.000000
vt 0.000000 0.000000
vt 0.000000 0.000000
vt 0.000000 0.000000
vt 0.000000 0.000000
vt 0.000000 0.000000
vt 0.000000 0.000000
vt 0.000000 0.000000
vt 0.000000 0.000000
vt 0.000000 0.000000
vt 0.000000 0.000000
vt 0.000000 0.000000
vt 0.000000 0.000000
vt 0.000000 0.000000
vt 0.000000 0.000000
vt 0.000000 0.000000
vt 0.000000 0.000000
vt 0.000000 0.000000
vt 0.000000 0.000000
vt 0.000000 0.000000
vt 0.000000 0.000000
vt 0.000000 0.000000
vt 0.000000 0.000000
vt 0.000000 0.000000
vt 0.000000 0.000000
vt 0.000000 0.000000
vt 0.000000 0.000000
vt 0.000000 0.000000
vt 0.000000 0.000000
vt 0.000000 0.000000
vt 0.000000 0.000000
vt 0.000000 0.000000
vt 0.000000 0.000000
vt 0.000000 0.000000
vt 0.000000 0.000000
vt 0.000000 0.000000
vt 0.000000 0.000000
vt 0.000000 0.000000
vt 0.000000 0.000000
vt 0.000000 0.000000
vt 0.000000 0.000000
vt 0.000000 0.000000
vt 0.000000 0.000000
vt 0.000000 0.000000
vt 0.000000 0.000000
vt 0.000000 0.000000
vt 0.000000 0.000000
vt 0.000000 0.000000
vt 0.000000 0.000000
vt 0.831460 0.526786
vt 0.842696 0.973214
vt 0.831460 0.973214
vt 0.000000 0.000000
vt 0.000000 0.000000
vt 0.026966 0.026786
vt 0.476404 0.473214
vt 0.026966 0.473214
vt 0.831460 0.026786
vt 0.842697 0.473214
vt 0.831461 0.473214
vt 0.973034 0.473214
vt 0.961798 0.026786
vt 0.973034 0.026786
vt 0.896629 0.026786
vt 0.907865 0.473214
vt 0.896629 0.473214
vt 0.530337 0.026786
vt 0.777528 0.473214
vt 0.530337 0.473214
vt 0.026966 0.526786
vt 0.842696 0.526786
vt 0.476404 0.026786
vt 0.842696 0.026786
vt 0.961798 0.473214
vt 0.907865 0.026786
vt 0.777528 0.026786
vn 0.0000 -1.0000 0.0000
vn 0.0000 0.0000 1.0000
vn -1.0000 0.0000 0.0000
vn 0.0000 1.0000 0.0000
vn 1.0000 0.0000 0.0000
vn 0.0000 0.0000 -1.0000
usemtl Material
s off
f 3/1/1 2/2/1 1/3/1
f 7/4/2 12/5/2 11/6/2
f 1/7/2 7/4/2 6/8/2
f 2/9/2 8/10/2 7/4/2
f 3/11/2 6/8/2 5/12/2
f 4/13/2 5/12/2 8/10/2
f 9/14/2 14/15/2 13/16/2
f 5/12/2 10/17/2 9/14/2
f 8/10/2 9/14/2 12/5/2
f 6/8/2 11/6/2 10/17/2
f 16/18/2 17/19/2 20/20/2
f 12/5/2 13/16/2 16/18/2
f 10/17/2 15/21/2 14/15/2
f 11/6/2 16/18/2 15/21/2
f 19/22/2 24/23/2 23/24/2
f 14/15/2 19/22/2 18/25/2
f 15/21/2 20/20/2 19/22/2
f 13/16/2 18/25/2 17/19/2
f 24/23/2 25/26/2 28/27/2
f 17/19/2 22/28/2 21/29/2
f 20/20/2 21/29/2 24/23/2
f 18/25/2 23/24/2 22/28/2
f 26/30/2 31/31/2 30/32/2
f 22/28/2 27/33/2 26/30/2
f 23/24/2 28/27/2 27/33/2
f 21/29/2 26/30/2 25/26/2
f 31/31/2 36/34/2 35/35/2
f 27/33/2 32/36/2 31/31/2
f 25/26/2 30/32/2 29/37/2
f 28/27/2 29/37/2 32/36/2
f 36/34/2 37/38/2 40/39/2
f 29/37/2 34/40/2 33/41/2
f 32/36/2 33/41/2 36/34/2
f 30/32/2 35/35/2 34/40/2
f 39/42/2 44/43/2 43/44/2
f 34/40/2 39/42/2 38/45/2
f 35/35/2 40/39/2 39/42/2
f 33/41/2 38/45/2 37/38/2
f 43/44/2 48/46/2 47/47/2
f 37/38/2 42/48/2 41/49/2
f 40/39/2 41/49/2 44/43/2
f 38/45/2 43/44/2 42/48/2
f 48/46/2 49/50/2 52/51/2
f 41/49/2 46/52/2 45/53/2
f 44/43/2 45/53/2 48/46/2
f 42/48/2 47/47/2 46/52/2
f 52/54/3 55/55/3 51/56/3
f 46/52/2 51/57/2 50/58/2
f 47/47/2 52/51/2 51/57/2
f 45/53/2 50/58/2 49/50/2
f 55/59/4 53/60/4 54/61/4
f 50/62/5 53/63/5 49/64/5
f 49/65/2 56/66/2 52/67/2
f 51/68/6 54/69/6 50/70/6
f 55/71/5 58/72/5 56/73/5
f 3/1/1 4/74/1 2/2/1
f 7/4/2 8/10/2 12/5/2
f 1/7/2 2/9/2 7/4/2
f 2/9/2 4/13/2 8/10/2
f 3/11/2 1/7/2 6/8/2
f 4/13/2 3/11/2 5/12/2
f 9/14/2 10/17/2 14/15/2
f 5/12/2 6/8/2 10/17/2
f 8/10/2 5/12/2 9/14/2
f 6/8/2 7/4/2 11/6/2
f 16/18/2 13/16/2 17/19/2
f 12/5/2 9/14/2 13/16/2
f 10/17/2 11/6/2 15/21/2
f 11/6/2 12/5/2 16/18/2
f 19/22/2 20/20/2 24/23/2
f 14/15/2 15/21/2 19/22/2
f 15/21/2 16/18/2 20/20/2
f 13/16/2 14/15/2 18/25/2
f 24/23/2 21/29/2 25/26/2
f 17/19/2 18/25/2 22/28/2
f 20/20/2 17/19/2 21/29/2
f 18/25/2 19/22/2 23/24/2
f 26/30/2 27/33/2 31/31/2
f 22/28/2 23/24/2 27/33/2
f 23/24/2 24/23/2 28/27/2
f 21/29/2 22/28/2 26/30/2
f 31/31/2 32/36/2 36/34/2
f 27/33/2 28/27/2 32/36/2
f 25/26/2 26/30/2 30/32/2
f 28/27/2 25/26/2 29/37/2
f 36/34/2 33/41/2 37/38/2
f 29/37/2 30/32/2 34/40/2
f 32/36/2 29/37/2 33/41/2
f 30/32/2 31/31/2 35/35/2
f 39/42/2 40/39/2 44/43/2
f 34/40/2 35/35/2 39/42/2
f 35/35/2 36/34/2 40/39/2
f 33/41/2 34/40/2 38/45/2
f 43/44/2 44/43/2 48/46/2
f 37/38/2 38/45/2 42/48/2
f 40/39/2 37/38/2 41/49/2
f 38/45/2 39/42/2 43/44/2
f 48/46/2 45/53/2 49/50/2
f 41/49/2 42/48/2 46/52/2
f 44/43/2 41/49/2 45/53/2
f 42/48/2 43/44/2 47/47/2
f 52/54/3 56/75/3 55/55/3
f 46/52/2 47/47/2 51/57/2
f 47/47/2 48/46/2 52/51/2
f 45/53/2 46/52/2 50/58/2
f 55/59/4 56/76/4 53/60/4
f 50/62/5 54/77/5 53/63/5
f 49/65/2 53/78/2 56/66/2
f 51/68/6 55/79/6 54/69/6
f 55/71/5 57/80/5 58/72/5
