# Blender v2.79 (sub 0) OBJ File: 'Level06.blend'
# www.blender.org
mtllib Level06.mtl
o Level_06_Circle.028
v -2.946506 0.180932 -19.696959
v -5.389260 0.180932 -19.225836
v -9.003153 0.180932 -10.283448
v -9.116706 0.180932 10.008908
v -5.502813 0.180932 19.121626
v -3.230388 0.180932 19.649523
v -3.172253 0.180932 18.497080
v -6.314789 0.180932 10.065686
v -6.258013 0.180932 -10.113120
v -2.945152 0.180932 -18.714849
v -5.389260 6.180932 -19.225836
v -2.946506 6.180932 -19.696959
v -9.003153 6.180932 -10.283448
v -9.116706 6.180932 10.008908
v -5.502813 6.180932 19.121626
v -3.230388 6.180932 19.649523
v -3.172253 6.180932 18.497080
v -6.314789 6.180932 10.065686
v -6.258013 6.180932 -10.113120
v -2.945152 6.180932 -18.714849
vt 0.134811 0.245646
vt 0.194053 0.244644
vt 0.192650 0.754370
vt 0.061997 0.755356
vt 0.002755 0.754354
vt 0.060593 0.245630
vt 0.393498 0.027837
vt 0.266651 0.003031
vt 0.393498 0.003031
vt 0.393498 0.967827
vt 0.266651 0.755873
vt 0.393498 0.755873
vt 0.525418 0.232849
vt 0.398572 0.003031
vt 0.525418 0.003031
vt 0.530492 0.154594
vt 0.583087 0.003031
vt 0.583087 0.154594
vt 0.266651 0.246169
vt 0.393498 0.246169
vt 0.579813 0.160657
vt 0.530492 0.312220
vt 0.530492 0.160657
vt 0.525418 0.971711
vt 0.398572 0.745452
vt 0.525418 0.745452
vt 0.266651 0.027837
vt 0.393498 0.996954
vt 0.266651 0.967827
vt 0.398572 0.232849
vt 0.261421 0.996969
vt 0.209841 0.984692
vt 0.261577 0.972161
vt 0.134594 0.758249
vt 0.212388 0.016016
vt 0.260496 0.003031
vt 0.261577 0.032151
vt 0.002537 0.241751
vt 0.077784 0.015308
vt 0.129364 0.003031
vt 0.129520 0.027839
vt 0.129520 0.967849
vt 0.080331 0.983984
vt 0.128440 0.996969
vt 0.530492 0.003031
vt 0.579813 0.312220
vt 0.398571 0.971711
vt 0.266651 0.996954
vn 0.0000 1.0000 0.0000
vn 0.0000 -1.0000 0.0000
vn -1.0000 0.0000 0.0014
vn -0.9370 0.0000 0.3492
vn 0.9296 0.0000 -0.3686
vn 0.1894 0.0000 0.9819
vn -1.0000 0.0000 -0.0028
vn 0.2263 0.0000 -0.9741
vn 0.9272 0.0000 0.3747
vn -0.9332 0.0000 -0.3594
vn -0.9987 0.0000 -0.0504
vn 1.0000 0.0000 0.0056
usemtl Material
s off
f 4/1/1 8/2/1 9/3/1
f 18/4/2 14/5/2 19/6/2
f 10/7/3 12/8/3 1/9/3
f 7/10/4 18/11/4 8/12/4
f 4/13/5 15/14/5 5/15/5
f 1/16/6 11/17/6 2/18/6
f 8/12/7 19/19/7 9/20/7
f 5/21/8 16/22/8 6/23/8
f 2/24/9 13/25/9 3/26/9
f 9/20/10 20/27/10 10/7/10
f 6/28/11 17/29/11 7/10/11
f 3/26/12 14/30/12 4/13/12
f 1/31/1 2/32/1 10/33/1
f 3/34/1 4/1/1 9/3/1
f 5/35/1 6/36/1 7/37/1
f 5/35/1 7/37/1 8/2/1
f 10/33/1 2/32/1 9/3/1
f 9/3/1 2/32/1 3/34/1
f 4/1/1 5/35/1 8/2/1
f 13/38/2 11/39/2 19/6/2
f 12/40/2 20/41/2 11/39/2
f 18/4/2 17/42/2 15/43/2
f 11/39/2 20/41/2 19/6/2
f 17/42/2 16/44/2 15/43/2
f 13/38/2 19/6/2 14/5/2
f 15/43/2 14/5/2 18/4/2
f 10/7/3 20/27/3 12/8/3
f 7/10/4 17/29/4 18/11/4
f 4/13/5 14/30/5 15/14/5
f 1/16/6 12/45/6 11/17/6
f 8/12/7 18/11/7 19/19/7
f 5/21/8 15/46/8 16/22/8
f 2/24/9 11/47/9 13/25/9
f 9/20/10 19/19/10 20/27/10
f 6/28/11 16/48/11 17/29/11
f 3/26/12 13/25/12 14/30/12
