# Blender v2.79 (sub 0) OBJ File: 'Ground.blend'
# www.blender.org
mtllib Ground.mtl
o Ground_Circle.028
v -3.071250 0.187553 -19.694761
v -8.315884 0.187553 -18.782839
v -8.638009 0.187553 -19.684359
v -17.703793 0.187553 -18.108068
v -17.757605 0.187553 17.698561
v -8.726618 0.187553 19.510746
v -8.572000 0.187553 18.512697
v -3.299228 0.187553 19.591436
v -3.137260 0.187553 18.589109
v 7.982141 0.187553 18.667316
v 18.733631 0.187553 14.486174
v 21.462585 0.187553 5.780951
v 21.450390 0.187553 -5.338452
v 19.020267 0.187553 -14.411589
v 7.776197 0.187553 -18.694231
v -2.909287 0.187553 -18.716833
vt 0.201088 0.976046
vt 0.205004 0.025053
vt 0.367198 0.974481
vt 0.445397 0.023413
vt 0.450230 0.000478
vt 0.585624 0.040947
vt 0.585624 0.952372
vt 0.448386 0.972743
vt 0.369595 1.000000
vt 0.450674 0.998154
vt 0.364629 0.024886
vt 0.367071 0.000000
vt 0.040571 0.869208
vt 0.000000 0.647520
vt 0.000432 0.364488
vt 0.036938 0.133633
vn 0.0000 1.0000 0.0000
usemtl Material
s off
f 10/1/1 15/2/1 9/3/1
f 2/4/1 3/5/1 4/6/1
f 4/6/1 5/7/1 2/4/1
f 7/8/1 8/9/1 9/3/1
f 5/7/1 6/10/1 7/8/1
f 16/11/1 1/12/1 2/4/1
f 2/4/1 5/7/1 7/8/1
f 7/8/1 9/3/1 16/11/1
f 10/1/1 11/13/1 12/14/1
f 12/14/1 13/15/1 10/1/1
f 14/16/1 15/2/1 13/15/1
f 16/11/1 2/4/1 7/8/1
f 9/3/1 15/2/1 16/11/1
f 13/15/1 15/2/1 10/1/1
